# xmcd
#
# Track frame offsets: 
#        150
#        17842
#        36579
#        54619
#        70604
#        82403
#        100652
#        116754
#        131116
#        143193
#        156859
#        171890
#        188439
#        200391
#        213534
#        232076
#        248556
#        263218
#        279280
#        290493
#
# Disc length: 4126 seconds
#
# Revision: 1
# Processed by: cddbd v1.5.2PL0 Copyright (c) Steve Scherf et al.
# Submitted via: ExactAudioCopyFreeDBPlugin 1.0
#
DISCID=2e101c14
DTITLE=Juice Newton - Greatest Hits
DYEAR=2005
DGENRE=Country
TTITLE0=A Little Love
TTITLE1=Angel Of The Morning
TTITLE2=Break It To Me Gently
TTITLE3=Cheap Love
TTITLE4=Crazy Little Thing Called Love
TTITLE5=Heart Of The Night
TTITLE6=Hurt
TTITLE7=Love's Been A Little Heard
TTITLE8=Night Time Without You
TTITLE9=Old Flame
TTITLE10=Queen Of Hearts
TTITLE11=Ride Em Cowboy
TTITLE12=Stuck In The Middle
TTITLE13=Sunshine
TTITLE14=Sweetest Thing
TTITLE15=Tell Her No
TTITLE16=Tell Me True
TTITLE17=What Can I Do With My Heart
TTITLE18=When Love Comes Around The Bend
TTITLE19=You Make Me Want To Make You Mine
EXTD=
EXTT0=
EXTT1=
EXTT2=
EXTT3=
EXTT4=
EXTT5=
EXTT6=
EXTT7=
EXTT8=
EXTT9=
EXTT10=
EXTT11=
EXTT12=
EXTT13=
EXTT14=
EXTT15=
EXTT16=
EXTT17=
EXTT18=
EXTT19=
PLAYORDER=
